PathFileType	4	(X/Y/Z)	two_link_01.trc																
DataRate	CameraRate	NumFrames	NumMarkers	Units	OrigDataRate	OrigDataStartFrame	OrigNumFrames												
60	60	71	6	m	60	1579	2526												
Frame#	Time	Link2_Marker_1			Link2_Marker_2			Link2_Marker_3			Link1_Marker_1			Link1_Marker_2			Link1_Marker_3		
		X1	Y1	Z1	X2	Y2	Z2	X3	Y3	Z3	X4	Y4	Z4	X5	Y5	Z5	X6	Y6	Z6
																			
1579	0.29683326	0.3229719	0.39212147	0	0.3229719	0.39212147	0.1	0.27143171	0.47781633	0	0.08302631	0.24780892	0	0.08302631	0.24780892	0.1	0	0	82.40873682
1580	0.297	0.32304109	0.3920147	0	0.32304109	0.3920147	0.1	0.27153877	0.47773232	0	0.08303175	0.2478082	0	0.08303175	0.2478082	0.1	0	0	82.40747918
1581	0.29703858	0.32305709	0.39198997	0	0.32305709	0.39198997	0.1	0.27156355	0.47771286	0	0.08303299	0.24780803	0	0.08303299	0.24780803	0.1	0	0	82.40719213
1582	0.29707716	0.32307308	0.39196526	0	0.32307308	0.39196526	0.1	0.2715883	0.47769342	0	0.08303424	0.24780787	0	0.08303424	0.24780787	0.1	0	0	82.40690336
1583	0.29727007	0.32315273	0.3918422	0	0.32315273	0.3918422	0.1	0.27171159	0.47759656	0	0.08304053	0.24780703	0	0.08304053	0.24780703	0.1	0	0	82.40544977
1584	0.298	0.32345015	0.39138318	0	0.32345015	0.39138318	0.1	0.27217178	0.47723496	0	0.08306516	0.24780374	0	0.08306516	0.24780374	0.1	0	0	82.39975457
1585	0.29802607	0.32346066	0.39136697	0	0.32346066	0.39136697	0.1	0.27218804	0.47722219	0	0.08306606	0.24780362	0	0.08306606	0.24780362	0.1	0	0	82.39954601
1586	0.29805214	0.32347117	0.39135076	0	0.32347117	0.39135076	0.1	0.2722043	0.4772094	0	0.08306696	0.2478035	0	0.08306696	0.2478035	0.1	0	0	82.39933802
1587	0.29818248	0.32352381	0.39126951	0	0.32352381	0.39126951	0.1	0.27228574	0.47714535	0	0.08307146	0.2478029	0	0.08307146	0.2478029	0.1	0	0	82.39829868
1588	0.29883419	0.32378843	0.39085938	0	0.32378843	0.39085938	0.1	0.27269578	0.47682182	0	0.08309361	0.24779995	0	0.08309361	0.24779995	0.1	0	0	82.39317644
1589	0.299	0.32385611	0.39075404	0	0.32385611	0.39075404	0.1	0.27280081	0.47673867	0	0.08309915	0.24779921	0	0.08309915	0.24779921	0.1	0	0	82.39189473
1590	0.29904164	0.32387311	0.39072757	0	0.32387311	0.39072757	0.1	0.2728272	0.47671777	0	0.08310054	0.24779902	0	0.08310054	0.24779902	0.1	0	0	82.39157502
1591	0.29908328	0.32389007	0.39070113	0	0.32389007	0.39070113	0.1	0.27285354	0.4766969	0	0.08310192	0.24779884	0	0.08310192	0.24779884	0.1	0	0	82.39125531
1592	0.2992915	0.32397456	0.39056941	0	0.32397456	0.39056941	0.1	0.27298474	0.47659289	0	0.08310883	0.24779791	0	0.08310883	0.24779791	0.1	0	0	82.38965733
1593	0.3	0.32425768	0.39012733	0	0.32425768	0.39012733	0.1	0.27342463	0.47624353	0	0.08313232	0.24779477	0	0.08313232	0.24779477	0.1	0	0	82.38422684
1594	0.30002882	0.32426906	0.39010954	0	0.32426906	0.39010954	0.1	0.27344232	0.47622946	0	0.08313327	0.24779465	0	0.08313327	0.24779465	0.1	0	0	82.38400625
1595	0.30005764	0.32428045	0.39009173	0	0.32428045	0.39009173	0.1	0.27346002	0.47621538	0	0.08313423	0.24779452	0	0.08313423	0.24779452	0.1	0	0	82.38378509
1596	0.30020173	0.32433748	0.39000253	0	0.32433748	0.39000253	0.1	0.27354868	0.47614484	0	0.08313902	0.24779388	0	0.08313902	0.24779388	0.1	0	0	82.38267756
1597	0.30092218	0.32462493	0.38955204	0	0.32462493	0.38955204	0.1	0.27399586	0.47578832	0	0.08316334	0.24779062	0	0.08316334	0.24779062	0.1	0	0	82.37705283
1598	0.301	0.3246562	0.38950296	0	0.3246562	0.38950296	0.1	0.27404452	0.47574945	0	0.083166	0.24779027	0	0.083166	0.24779027	0.1	0	0	82.37643747
1599	0.30104336	0.3246736	0.38947562	0	0.3246736	0.38947562	0.1	0.27407162	0.4757278	0	0.08316748	0.24779007	0	0.08316748	0.24779007	0.1	0	0	82.37609599
1600	0.30108672	0.32469097	0.38944831	0	0.32469097	0.38944831	0.1	0.27409867	0.47570618	0	0.08316895	0.24778987	0	0.08316895	0.24778987	0.1	0	0	82.37575566
1601	0.30130352	0.32477742	0.3893123	0	0.32477742	0.3893123	0.1	0.27423334	0.47559843	0	0.08317625	0.2477889	0	0.08317625	0.2477889	0.1	0	0	82.37406887
1602	0.302	0.32505043	0.38888103	0	0.32505043	0.38888103	0.1	0.2746593	0.47525657	0	0.08319893	0.24778586	0	0.08319893	0.24778586	0.1	0	0	82.36882458
1603	0.3020282	0.32506135	0.38886374	0	0.32506135	0.38886374	0.1	0.27467634	0.47524286	0	0.08319982	0.24778574	0	0.08319982	0.24778574	0.1	0	0	82.36861775
1604	0.30205641	0.32507226	0.38884644	0	0.32507226	0.38884644	0.1	0.2746934	0.47522913	0	0.08320072	0.24778562	0	0.08320072	0.24778562	0.1	0	0	82.36841034
1605	0.30219742	0.32512697	0.38875976	0	0.32512697	0.38875976	0.1	0.27477885	0.47516038	0	0.08320525	0.24778501	0	0.08320525	0.24778501	0.1	0	0	82.3673624
1606	0.3029025	0.32540315	0.38832237	0	0.32540315	0.38832237	0.1	0.2752101	0.47481316	0	0.08322891	0.24778184	0	0.08322891	0.24778184	0.1	0	0	82.36189065
1607	0.303	0.32544166	0.38826139	0	0.32544166	0.38826139	0.1	0.27527023	0.47476473	0	0.08323231	0.24778138	0	0.08323231	0.24778138	0.1	0	0	82.36110512
1608	0.30304354	0.32545885	0.38823416	0	0.32545885	0.38823416	0.1	0.27529707	0.47474309	0	0.08323383	0.24778118	0	0.08323383	0.24778118	0.1	0	0	82.36075447
1609	0.30308708	0.32547601	0.38820696	0	0.32547601	0.38820696	0.1	0.27532387	0.47472149	0	0.08323534	0.24778098	0	0.08323534	0.24778098	0.1	0	0	82.36040554
1610	0.30330479	0.32556132	0.38807149	0	0.32556132	0.38807149	0.1	0.27545721	0.47461384	0	0.08324274	0.24777998	0	0.08324274	0.24777998	0.1	0	0	82.3586924
1611	0.304	0.32582872	0.38764423	0	0.32582872	0.38764423	0.1	0.27587613	0.47427413	0	0.083265	0.247777	0	0.083265	0.247777	0.1	0	0	82.35354609
1612	0.3040275	0.32583914	0.38762749	0	0.32583914	0.38762749	0.1	0.2758925	0.47426081	0	0.08326584	0.24777688	0	0.08326584	0.24777688	0.1	0	0	82.35335243
1613	0.304055	0.32584958	0.38761074	0	0.32584958	0.38761074	0.1	0.27590888	0.47424749	0	0.08326668	0.24777677	0	0.08326668	0.24777677	0.1	0	0	82.35315705
1614	0.30419251	0.32590188	0.38752682	0	0.32590188	0.38752682	0.1	0.27599094	0.47418072	0	0.08327096	0.2477762	0	0.08327096	0.2477762	0.1	0	0	82.35216813
1615	0.30488003	0.32616622	0.38710371	0	0.32616622	0.38710371	0.1	0.27640529	0.47384384	0	0.08329385	0.24777312	0	0.08329385	0.24777312	0.1	0	0	82.34687572
1616	0.305	0.32621279	0.38702931	0	0.32621279	0.38702931	0.1	0.27647823	0.47378457	0	0.08329808	0.24777255	0	0.08329808	0.24777255	0.1	0	0	82.34589539
1617	0.30504244	0.32622927	0.387003	0	0.32622927	0.387003	0.1	0.27650403	0.4737636	0	0.08329959	0.24777235	0	0.08329959	0.24777235	0.1	0	0	82.34554703
1618	0.30508487	0.3262457	0.38697672	0	0.3262457	0.38697672	0.1	0.27652979	0.47374265	0	0.08330108	0.24777215	0	0.08330108	0.24777215	0.1	0	0	82.34520211
1619	0.30529705	0.32632743	0.38684574	0	0.32632743	0.38684574	0.1	0.27665794	0.47363826	0	0.08330837	0.24777117	0	0.08330837	0.24777117	0.1	0	0	82.34351589
1620	0.306	0.3265928	0.38641692	0	0.3265928	0.38641692	0.1	0.27707539	0.4732963	0	0.08333054	0.24776819	0	0.08333054	0.24776819	0.1	0	0	82.33839079
1621	0.30602679	0.32660276	0.38640073	0	0.32660276	0.38640073	0.1	0.2770911	0.47328338	0	0.08333133	0.24776808	0	0.08333133	0.24776808	0.1	0	0	82.33820858
1622	0.30605358	0.32661272	0.38638452	0	0.32661272	0.38638452	0.1	0.27710681	0.47327045	0	0.08333212	0.24776798	0	0.08333212	0.24776798	0.1	0	0	82.33802524
1623	0.30618753	0.32666268	0.38630337	0	0.32666268	0.38630337	0.1	0.27718556	0.47320569	0	0.08333616	0.24776743	0	0.08333616	0.24776743	0.1	0	0	82.33709074
1624	0.30685727	0.32691541	0.38589449	0	0.32691541	0.38589449	0.1	0.27758325	0.47287919	0	0.08335823	0.24776446	0	0.08335823	0.24776446	0.1	0	0	82.33198626
1625	0.307	0.32696986	0.38580673	0	0.32696986	0.38580673	0.1	0.2776688	0.47280907	0	0.08336333	0.24776378	0	0.08336333	0.24776378	0.1	0	0	82.33080769
1626	0.30704054	0.32698533	0.3857818	0	0.32698533	0.3857818	0.1	0.27769311	0.47278914	0	0.08336479	0.24776358	0	0.08336479	0.24776358	0.1	0	0	82.33047079
1627	0.30708109	0.32700077	0.3857569	0	0.32700077	0.3857569	0.1	0.27771737	0.47276924	0	0.08336623	0.24776338	0	0.08336623	0.24776338	0.1	0	0	82.33013676
1628	0.30728381	0.32707753	0.38563276	0	0.32707753	0.38563276	0.1	0.27783813	0.47267	0	0.08337326	0.24776244	0	0.08337326	0.24776244	0.1	0	0	82.32851127
1629	0.308	0.32734296	0.3851991	0	0.32734296	0.3851991	0.1	0.27825736	0.47232317	0	0.08339555	0.24775943	0	0.08339555	0.24775943	0.1	0	0	82.32335752
1630	0.30802612	0.32735248	0.38518341	0	0.32735248	0.38518341	0.1	0.27827245	0.47231063	0	0.08339629	0.24775933	0	0.08339629	0.24775933	0.1	0	0	82.3231862
1631	0.30805225	0.32736201	0.38516772	0	0.32736201	0.38516772	0.1	0.27828755	0.47229807	0	0.08339704	0.24775923	0	0.08339704	0.24775923	0.1	0	0	82.32301317
1632	0.30818287	0.32740978	0.38508915	0	0.32740978	0.38508915	0.1	0.2783632	0.47223519	0	0.08340086	0.24775872	0	0.08340086	0.24775872	0.1	0	0	82.32212795
1633	0.30883597	0.32765165	0.38469361	0	0.32765165	0.38469361	0.1	0.27874531	0.47191843	0	0.08342215	0.24775585	0	0.08342215	0.24775585	0.1	0	0	82.3172051
1634	0.309	0.32771313	0.38459363	0	0.32771313	0.38459363	0.1	0.27884221	0.4718383	0	0.08342804	0.24775505	0	0.08342804	0.24775505	0.1	0	0	82.3158426
1635	0.30903835	0.32772751	0.38457025	0	0.32772751	0.38457025	0.1	0.27886488	0.47181956	0	0.08342944	0.24775486	0	0.08342944	0.24775486	0.1	0	0	82.31552003
1636	0.3090767	0.32774187	0.38454689	0	0.32774187	0.38454689	0.1	0.27888751	0.47180084	0	0.08343082	0.24775468	0	0.08343082	0.24775468	0.1	0	0	82.31520089
1637	0.30926844	0.32781323	0.38443043	0	0.32781323	0.38443043	0.1	0.27900014	0.47170747	0	0.08343752	0.24775377	0	0.08343752	0.24775377	0.1	0	0	82.31365161
1638	0.31	0.32807945	0.38399073	0	0.32807945	0.38399073	0.1	0.27942231	0.47135481	0	0.08346002	0.24775074	0	0.08346002	0.24775074	0.1	0	0	82.30844687
1639	0.31002553	0.32808857	0.38397551	0	0.32808857	0.38397551	0.1	0.27943683	0.4713426	0	0.08346073	0.24775064	0	0.08346073	0.24775064	0.1	0	0	82.30828415
1640	0.31005107	0.32809771	0.38396028	0	0.32809771	0.38396028	0.1	0.27945137	0.47133038	0	0.08346143	0.24775054	0	0.08346143	0.24775054	0.1	0	0	82.30812028
1641	0.31017873	0.32814351	0.38388404	0	0.32814351	0.38388404	0.1	0.27952423	0.4712692	0	0.08346508	0.24775005	0	0.08346508	0.24775005	0.1	0	0	82.30727746
1642	0.31081705	0.32837551	0.38350054	0	0.32837551	0.38350054	0.1	0.2798922	0.47096121	0	0.08348563	0.24774728	0	0.08348563	0.24774728	0.1	0	0	82.30252363
1643	0.311	0.32844286	0.38338999	0	0.32844286	0.38338999	0.1	0.27999871	0.47087236	0	0.08349222	0.24774638	0	0.08349222	0.24774638	0.1	0	0	82.30099956
1644	0.31103252	0.32845485	0.38337033	0	0.32845485	0.38337033	0.1	0.28001767	0.47085655	0	0.08349342	0.24774622	0	0.08349342	0.24774622	0.1	0	0	82.30072339
1645	0.31106505	0.32846682	0.38335069	0	0.32846682	0.38335069	0.1	0.28003659	0.47084076	0	0.0834946	0.24774606	0	0.0834946	0.24774606	0.1	0	0	82.30045009
1646	0.31122767	0.32852635	0.38325268	0	0.32852635	0.38325268	0.1	0.28013086	0.47076197	0	0.08350034	0.24774529	0	0.08350034	0.24774529	0.1	0	0	82.29912198
1647	0.312	0.32880253	0.38279181	0	0.32880253	0.38279181	0.1	0.28057049	0.47039129	0	0.08352397	0.24774209	0	0.08352397	0.24774209	0.1	0	0	82.29365825
1648	0.31202504	0.32881132	0.38277698	0	0.32881132	0.38277698	0.1	0.28058454	0.47037937	0	0.08352464	0.247742	0	0.08352464	0.247742	0.1	0	0	82.29350298
1649	0.31205543	0.32882199	0.38275898	0	0.32882199	0.38275898	0.1	0.28060159	0.47036488	0	0.08352546	0.24774189	0	0.08352546	0.24774189	0.1	0	0	82.29331276
